<?xml version="1.0" encoding="UTF-8"?>
<svg width="72px" height="72px" viewBox="0 0 72 72" version="1.1" xmlns="http://www.w3.org/2000/svg" xmlns:xlink="http://www.w3.org/1999/xlink">
    <title>Iconist - Medical &amp; Health/Two-Tone/apple</title>
    <g id="Iconist---Medical-&amp;-Health/Two-Tone/apple" stroke="none" stroke-width="1" fill="none" fill-rule="evenodd">
        <g id="Group">
            <g transform="translate(0.000000, 0.098630)">
                <rect id="Rectangle" x="0" y="0" width="71.0136987" height="71.0136987"></rect>
                <path d="M45.2712329,21.5013699 C43.4958905,21.4027398 41.6219179,21.6 39.7479453,22.290411 L36.7890411,23.3753425 C36.4931507,23.4739726 36.1972603,23.5726028 35.8027398,23.5726028 C36,22.3890411 35.9013699,21.2054795 35.6054795,20.0219178 C35.8027398,20.0219178 36,20.0219178 36.1972603,20.0219178 C38.3671233,20.0219178 40.5369864,19.1342466 42.2136987,17.5561644 C44.3835617,15.3863014 45.1726028,12.3287671 44.3835617,9.36986303 C44.2849316,9.07397262 43.9890412,8.7780822 43.6931507,8.7780822 C40.7342466,7.98904111 37.6767124,8.87671234 35.5068494,10.9479452 C34.3232877,12.1315069 33.5342466,13.7095891 33.2383562,15.3863014 C31.8575343,13.8082192 29.8849315,12.6246576 27.6164384,12.0328767 C27.1232877,11.9342466 26.5315069,12.230137 26.4328767,12.7232877 C26.3342466,13.2164384 26.630137,13.8082192 27.1232877,13.9068493 C29.3917809,14.4 31.2657535,15.7808219 32.5479453,17.7534247 C33.6328768,19.430137 34.0273973,21.3041096 33.830137,23.1780822 L31.3643836,22.290411 C29.490411,21.6 27.6164384,21.4027398 25.8410959,21.5013699 C17.1616439,22.1917809 10.3561644,29.5890411 10.3561644,38.2684932 L10.3561644,38.860274 C10.3561644,52.4712329 19.2328767,62.3342467 31.3643836,62.3342467 C32.1534247,62.3342467 32.9424658,62.1369864 33.830137,61.841096 C35.0136987,61.3479453 36.2958905,61.3479453 37.380822,61.841096 C38.1698631,62.1369864 39.0575343,62.3342467 39.8465754,62.3342467 C39.8465754,62.3342467 39.8465754,62.3342467 39.8465754,62.3342467 C51.9780823,62.3342467 60.8547946,52.4712329 60.8547946,38.860274 L60.8547946,38.2684932 C60.7561645,29.5890411 53.950685,22.1917809 45.2712329,21.5013699 Z" id="Path" fill="#CADAC2" fill-rule="nonzero"></path>
            </g>
            <path d="M35.5068494,11.0465754 C37.6767124,8.97534248 40.7342466,8.08767124 43.6931507,8.87671234 C43.9890412,8.87671234 44.2849316,9.17260275 44.3835617,9.46849316 C45.1726028,12.4273973 44.3835617,15.4849315 42.2136987,17.6547945 C40.5369864,19.2328767 38.3671233,20.120548 36.1972603,20.120548 L36.1972603,20.120548 L35.6054795,20.120548 C35.9013699,21.3041096 36,22.4876713 35.8027398,23.6712329 C36.1972603,23.6712329 36.4931507,23.5726028 36.7890411,23.4739726 L36.7890411,23.4739726 L39.7479453,22.3890411 C41.6219179,21.6986302 43.4958905,21.5013699 45.2712329,21.6 C53.950685,22.290411 60.7561645,29.6876713 60.8547946,38.3671233 L60.8547946,38.3671233 L60.8547946,38.9589042 C60.8547946,52.5698631 51.9780823,62.4328768 39.8465754,62.4328768 L39.8465754,62.4328768 L39.546447,62.4238229 C38.8371576,62.3820206 38.0712329,62.1986302 37.380822,61.9397261 C36.2958905,61.4465754 35.0136987,61.4465754 33.830137,61.9397261 C32.9424658,62.2356165 32.1534247,62.4328768 31.3643836,62.4328768 C19.2328767,62.4328768 10.3561644,52.5698631 10.3561644,38.9589042 L10.3561644,38.9589042 L10.3561644,38.3671233 C10.3561644,29.6876713 17.1616439,22.290411 25.8410959,21.6 C27.6164384,21.5013699 29.490411,21.6986302 31.3643836,22.3890411 L31.3643836,22.3890411 L33.830137,23.2767124 C34.0273973,21.4027398 33.6328768,19.5287672 32.5479453,17.8520548 C31.2657535,15.8794521 29.3917809,14.4986302 27.1232877,14.0054795 C26.630137,13.9068493 26.3342466,13.3150685 26.4328767,12.8219178 C26.5315069,12.3287671 27.1232877,12.0328767 27.6164384,12.1315069 C29.8849315,12.7232877 31.8575343,13.9068493 33.2383562,15.4849315 C33.5342466,13.8082192 34.3232877,12.230137 35.5068494,11.0465754 Z M45.1726028,23.5726028 C43.6931507,23.4739726 42.1150686,23.6712329 40.4383562,24.2630137 L40.4383562,24.2630137 L37.4794521,25.3479452 C36.7890411,25.5452055 36.1972603,25.6438357 35.5068494,25.6438357 L35.5068494,25.6438357 L35.210959,25.6438357 C34.7178083,25.6438357 34.3232877,25.5452055 33.7315069,25.3479452 L33.7315069,25.3479452 L30.6739726,24.2630137 C29.0958905,23.6712329 27.4191781,23.4739726 25.9397261,23.5726028 C18.2465754,24.1643836 12.230137,30.6739726 12.230137,38.3671233 L12.230137,38.3671233 L12.230137,38.9589042 C12.230137,51.3863014 20.2191781,60.4602741 31.2657535,60.4602741 L31.2657535,60.4602741 L31.4828548,60.448772 C31.9279844,60.403914 32.4352251,60.2348337 32.9424658,60.0657535 C33.830137,59.7698631 34.6191781,59.5726028 35.5068494,59.5726028 C36.3945206,59.5726028 37.2821918,59.7698631 38.0712329,60.0657535 C38.6630138,60.3616439 39.2547946,60.4602741 39.7479453,60.4602741 L39.7479453,60.4602741 L40.0886116,60.4573871 C50.958394,60.2728254 58.7835617,51.2581839 58.7835617,38.9589042 L58.7835617,38.9589042 L58.8821919,38.9589042 L58.8821919,38.3671233 C58.8821919,30.6739726 52.8657535,24.1643836 45.1726028,23.5726028 Z M42.6082192,10.6520548 C40.5369864,10.2575343 38.3671233,10.9479452 36.8876713,12.4273973 C35.4082192,13.9068493 34.7178083,15.9780822 35.1123288,18.1479452 C37.1835617,18.5424658 39.3534247,17.8520548 40.8328768,16.3726028 C42.3123288,14.8931507 43.0027398,12.7232877 42.6082192,10.6520548 Z" id="Shape" fill="#19494B" fill-rule="nonzero"></path>
        </g>
    </g>
</svg>