<?xml version="1.0" encoding="UTF-8"?>
<svg width="72px" height="72px" viewBox="0 0 72 72" version="1.1" xmlns="http://www.w3.org/2000/svg" xmlns:xlink="http://www.w3.org/1999/xlink">
    <title>Iconist - Medical &amp; Health/Two-Tone/eye</title>
    <g id="Iconist---Medical-&amp;-Health/Two-Tone/eye" stroke="none" stroke-width="1" fill="none" fill-rule="evenodd">
        <g id="Group" transform="translate(-0.000000, -0.000000)">
            <rect id="Rectangle" x="0" y="0" width="72.0000001" height="72.0000001"></rect>
            <g transform="translate(9.000000, 12.000000)" fill-rule="nonzero">
                <path d="M39.1000001,40.4000001 C32.4,47.1000001 21.5,47.1000001 14.8,40.4000001 L3,28.5 L14.9,16.6 C21.6,9.90000001 32.5,9.90000001 39.2000001,16.6 L51,28.5 L39.1000001,40.4000001 Z" id="Path" fill="#CADAC2"></path>
                <path d="M43.3000001,3.70000001 C43.7000001,3.3 44.3000001,3.3 44.7000001,3.70000001 C45.1000001,4.10000001 45.1000001,4.70000001 44.7000001,5.10000001 L44.7000001,5.10000001 L40.7000001,9.10000001 C40.5000001,9.30000001 40.3000001,9.4 40.0000001,9.4 C39.7000001,9.4 39.5000001,9.30000001 39.3000001,9.10000001 C38.9000001,8.70000001 38.9000001,8.10000001 39.3000001,7.70000001 L39.3000001,7.70000001 Z M9.30000001,3.70000001 C9.70000001,3.3 10.3,3.3 10.7,3.70000001 L10.7,3.70000001 L14.7,7.70000001 C15.1,8.10000001 15.1,8.70000001 14.7,9.10000001 C14.5,9.30000001 14.2,9.4 14,9.4 C13.8,9.4 13.5,9.30000001 13.3,9.10000001 L13.3,9.10000001 L9.30000001,5.10000001 C8.90000001,4.70000001 8.90000001,4.10000001 9.30000001,3.70000001 Z M27,0.500000001 C27.6,0.500000001 28,0.900000001 28,1.5 L28,1.5 L28,7.20000001 C28,7.80000001 27.6,8.20000001 27,8.20000001 C26.4,8.20000001 26,7.80000001 26,7.20000001 L26,7.20000001 L26,1.5 C26,0.900000001 26.4,0.500000001 27,0.500000001 Z" id="Shape" fill="#19494B"></path>
                <path d="M13.5,15.2 C21,7.70000001 33.1,7.70000001 40.6,15.2 L40.6,15.2 L53.9000001,28.5 L40.6,41.8000001 C36.8000001,45.5000001 32,47.4000001 27,47.4000001 C22,47.4000001 17.1,45.5000001 13.4,41.8000001 L13.4,41.8000001 L0.1,28.5 Z M39.2000001,16.6 C32.5,9.90000001 21.6,9.90000001 14.9,16.6 L14.9,16.6 L3,28.5 L14.8,40.4000001 C21.5,47.1000001 32.4,47.1000001 39.1000001,40.4000001 L39.1000001,40.4000001 L51,28.5 Z" id="Shape" fill="#19494B"></path>
                <path d="M26.9,17.6 C33,17.6 37.9,22.5 37.9,28.6 C37.9,34.7 33,39.6 26.9,39.6 C20.8,39.6 15.9,34.7 15.9,28.6 C15.9,22.5 20.8,17.6 26.9,17.6 Z M26.9,19.6 C21.9,19.6 17.9,23.6 17.9,28.6 C17.9,33.6 21.9,37.6 26.9,37.6 C31.9,37.6 35.9,33.6 35.9,28.6 C35.9,23.6 31.9,19.6 26.9,19.6 Z" id="Shape" fill="#19494B"></path>
                <circle id="Oval" fill="#19494B" cx="26.9" cy="28.6" r="3.5"></circle>
            </g>
        </g>
    </g>
</svg>