<svg xmlns="http://www.w3.org/2000/svg" x="0px" y="0px" width="30" height="30" viewBox="0 0 172 172" style=" fill:#000000;"><g fill="none" fill-rule="nonzero" stroke="none" stroke-width="1" stroke-linecap="butt" stroke-linejoin="miter" stroke-miterlimit="10" stroke-dasharray="" stroke-dashoffset="0" font-family="none" font-weight="none" font-size="none" text-anchor="none" style="mix-blend-mode: normal"><path d="M0,172v-172h172v172z" fill="none"></path><g><path d="M121.2901,165.55l15.8842,-15.8842l-30.9342,-30.9342l12.4915,-12.4915l30.9342,30.9342l15.8842,-15.8842v44.2599z" fill="#ffffff"></path><path d="M118.7316,109.2802l27.8941,27.8941l3.0401,3.0401l3.0401,-3.0401l10.6941,-10.6941v36.9198h-36.9198l10.6941,-10.6941l3.0401,-3.0401l-3.0401,-3.0401l-27.8941,-27.8941l9.4514,-9.4514M118.7316,103.2l-15.5316,15.5316l30.9342,30.9342l-18.0342,18.0342h51.6v-51.6l-18.0342,18.0342l-30.9342,-30.9342z" fill="#1a927f"></path><path d="M22.3342,34.8257l-15.8842,15.8842v-44.2599h44.2599l-15.8842,15.8842l30.9342,30.9342l-12.4915,12.4915z" fill="#ffffff"></path><path d="M45.5198,8.6l-10.6941,10.6941l-3.0401,3.0401l3.0401,3.0401l27.8941,27.8941l-9.4514,9.4514l-27.8941,-27.8941l-3.0401,-3.0401l-3.0401,3.0401l-10.6941,10.6941v-36.9198h36.9198M55.9,4.3h-51.6v51.6l18.0342,-18.0342l30.9342,30.9342l15.5316,-15.5316l-30.9342,-30.9342l18.0342,-18.0342z" fill="#1a927f"></path><g><path d="M6.45,165.55v-44.2599l15.8842,15.8842l30.9342,-30.9342l12.4915,12.4915l-30.9342,30.9342l15.8842,15.8842z" fill="#ffffff"></path><path d="M53.2684,109.2802l9.4514,9.4514l-27.8941,27.8941l-3.0401,3.0401l3.0401,3.0401l10.6941,10.6941h-36.9198v-36.9198l10.6941,10.6941l3.0401,3.0401l3.0401,-3.0401l27.8941,-27.8941M53.2684,103.2l-30.9342,30.9342l-18.0342,-18.0342v51.6h51.6l-18.0342,-18.0342l30.9342,-30.9342l-15.5316,-15.5316z" fill="#1a927f"></path></g><g><path d="M106.2401,53.2684l30.9342,-30.9342l-15.8842,-15.8842h44.2599v44.2599l-15.8842,-15.8842l-30.9342,30.9342z" fill="#ffffff"></path><path d="M163.4,8.6v36.9198l-10.6941,-10.6941l-3.0401,-3.0401l-3.0401,3.0401l-27.8941,27.8941l-9.4514,-9.4514l27.8941,-27.8941l3.0401,-3.0401l-3.0401,-3.0401l-10.6941,-10.6941h36.9198M167.7,4.3h-51.6l18.0342,18.0342l-30.9342,30.9342l15.5316,15.5316l30.9342,-30.9342l18.0342,18.0342v-51.6z" fill="#1a927f"></path></g></g></g></svg>